<svg width="212" height="172" viewBox="0 0 212 172" fill="none" xmlns="http://www.w3.org/2000/svg">
<path d="M60 63L15 86.3827V39.6173L60 63Z" fill="#33D9D9"/>
<path d="M108.07 134.3C100.703 134.3 94.8967 132.35 90.65 128.45C86.4033 124.55 84.28 119.307 84.28 112.72C84.28 105.7 86.62 100.283 91.3 96.47C95.98 92.6567 102.61 90.75 111.19 90.75H129V84.64C129 81.1733 127.873 78.4867 125.62 76.58C123.367 74.5867 120.29 73.59 116.39 73.59C112.837 73.59 109.89 74.37 107.55 75.93C105.21 77.49 103.823 79.6133 103.39 82.3H87.53C88.31 75.54 91.3433 70.1667 96.63 66.18C101.917 62.1933 108.677 60.2 116.91 60.2C125.663 60.2 132.553 62.41 137.58 66.83C142.693 71.1633 145.25 77.0567 145.25 84.51V133H129.52V120.52H126.92L129.52 117.01C129.52 122.297 127.57 126.5 123.67 129.62C119.77 132.74 114.57 134.3 108.07 134.3ZM113.4 122.08C117.993 122.08 121.72 120.91 124.58 118.57C127.527 116.23 129 113.197 129 109.47V100.76H111.45C108.157 100.76 105.513 101.713 103.52 103.62C101.527 105.527 100.53 108.04 100.53 111.16C100.53 114.54 101.657 117.227 103.91 119.22C106.25 121.127 109.413 122.08 113.4 122.08Z" fill="white"/>
<rect x="172" y="36" width="40" height="100" fill="#5C4FE8"/>
</svg>
